# Blender v241 OBJ File: Left_Rear_Femur.blend
# www.blender3d.org
mtllib Left_Rear_Femur_Collision.mtl
o Cube_Cube
v 0.020000 0.010000 1.300000
v 0.019000 0.100000 -1.322000
v -0.008000 0.100000 -1.327000
v 0.000000 0.010000 1.300000
v 0.020000 -0.010000 1.300000
v 0.019000 0.060000 -1.312000
v -0.008000 0.060000 -1.317000
v 0.000000 -0.010000 1.300000
v 0.108000 0.060000 0.901000
v -0.089000 0.060000 0.904000
v 0.108000 -0.060000 0.901000
v -0.089000 -0.060000 0.904000
v 0.180000 0.110000 1.201750
v -0.160000 0.110000 1.211750
v 0.180000 -0.110000 1.201750
v -0.160000 -0.110000 1.211750
v 0.128000 0.070000 0.423680
v -0.109000 0.070000 0.424680
v 0.128000 -0.080000 0.423680
v -0.109000 -0.080000 0.424680
v 0.217000 0.120000 -0.054656
v -0.170000 0.120000 -0.055656
v 0.217000 -0.120000 -0.054656
v -0.170000 -0.120000 -0.055656
v 0.273000 0.160000 -0.728111
v -0.250000 0.160000 -0.728111
v 0.273000 -0.160000 -0.728111
v -0.250000 -0.160000 -0.728111
v 0.258000 0.150000 -0.997743
v -0.209000 0.150000 -1.019743
v 0.258000 -0.150000 -0.997743
v -0.209000 -0.150000 -1.019743
v 0.182000 0.120000 -1.189885
v -0.133000 0.120000 -1.187884
v 0.182000 -0.090000 -1.189885
v -0.133000 -0.090000 -1.187884
vn 0.176821 -0.238714 -0.954856
vn 0.000003 -0.000003 1.000000
vn -0.003926 0.986757 -0.162156
vn 0.020312 0.681852 0.731208
vn 0.020312 -0.681852 0.731208
vn -0.003926 -0.986757 -0.162156
vn 0.523280 -0.000000 0.852161
vn 0.972519 0.000001 -0.232823
vn -0.974405 0.000000 -0.224802
vn -0.482969 -0.000000 0.875638
vn 0.000193 0.999782 0.020902
vn 0.000385 -0.999127 0.041777
vn 0.999123 0.000000 0.041864
vn -0.999131 0.000000 0.041690
vn 0.000000 0.994604 0.103748
vn 0.000000 -0.996536 0.083160
vn 0.983127 -0.000000 0.182922
vn -0.992032 0.000000 0.125983
vn -0.000065 0.998238 0.059336
vn -0.000065 -0.998238 0.059336
vn 0.996561 -0.000000 0.082867
vn -0.992998 0.000000 0.118134
vn 0.000791 0.999367 -0.035575
vn 0.000791 -0.999367 -0.035575
vn 0.998456 -0.000000 -0.055546
vn -0.990262 0.000000 -0.139219
vn 0.001281 0.989273 -0.146073
vn 0.004201 0.986406 -0.164272
vn 0.008082 -0.948727 -0.315994
vn 0.006728 -0.641524 -0.767074
vn 0.929899 -0.000000 -0.367814
vn 0.606739 -0.031771 -0.794266
vn -0.724559 -0.027547 -0.688662
vn -0.911238 -0.000000 -0.411881
usemtl (null)
usemtl (null)
s off
f 2//1 6//1 7//1 3//1
f 5//2 1//2 4//2 8//2
f 10//3 14//3 13//3 9//3
f 1//4 13//4 14//4 4//4
f 8//5 16//5 15//5 5//5
f 16//6 12//6 11//6 15//6
f 13//7 1//7 5//7 15//7
f 15//8 11//8 9//8 13//8
f 12//9 16//9 14//9 10//9
f 16//10 8//10 4//10 14//10
f 18//11 10//11 9//11 17//11
f 12//12 20//12 19//12 11//12
f 11//13 19//13 17//13 9//13
f 20//14 12//14 10//14 18//14
f 22//15 18//15 17//15 21//15
f 20//16 24//16 23//16 19//16
f 19//17 23//17 21//17 17//17
f 24//18 20//18 18//18 22//18
f 26//19 22//19 21//19 25//19
f 24//20 28//20 27//20 23//20
f 23//21 27//21 25//21 21//21
f 28//22 24//22 22//22 26//22
f 30//23 26//23 25//23 29//23
f 28//24 32//24 31//24 27//24
f 27//25 31//25 29//25 25//25
f 32//26 28//26 26//26 30//26
f 3//27 34//27 33//27 2//27
f 34//28 30//28 29//28 33//28
f 32//29 36//29 35//29 31//29
f 36//30 7//30 6//30 35//30
f 31//31 35//31 33//31 29//31
f 35//32 6//32 2//32 33//32
f 7//33 36//33 34//33 3//33
f 36//34 32//34 30//34 34//34
